<svg xmlns="http://www.w3.org/2000/svg" width="481" height="222" viewBox="0 0 481 222" fill="none"><g opacity="0.3"><mask id="path-1-outside-1_11_311" maskUnits="userSpaceOnUse" x="0" y="0.109375" width="481" height="222" fill="black"><rect fill="white" y="0.109375" width="481" height="222"></rect><path d="M1.26134 201.109V4.98244H126.304V34.4762H36.3277V92.5124H118.557V121.055H36.3277V201.109H1.26134ZM116.322 201.109L186.455 4.98244H225.871L296.004 201.109H259.17L242.589 150.413H169.602L153.02 201.109H116.322ZM205.755 39.9129L178.436 123.365H233.754L206.571 39.9129H205.755ZM386.872 204.507C329.515 204.507 293.769 165.499 293.769 103.114V102.842C293.769 40.5925 329.787 1.58454 386.872 1.58454C444.092 1.58454 479.838 40.5925 479.838 102.842V103.114C479.838 139.268 467.878 167.674 446.539 185.071L472.227 220.953H437.432L421.666 198.935C411.201 202.604 399.512 204.507 386.872 204.507ZM386.872 174.062C392.444 174.062 397.609 173.382 402.502 172.159L378.037 137.908H412.832L426.695 157.208C437.84 144.84 444.092 126.22 444.092 103.114V102.842C444.092 59.3489 421.938 32.0297 386.872 32.0297C351.941 32.0297 329.651 59.213 329.651 102.842V103.114C329.651 146.743 351.805 174.062 386.872 174.062Z"></path></mask><path d="M1.26134 201.109H0.261345V202.109H1.26134V201.109ZM1.26134 4.98244V3.98244H0.261345V4.98244H1.26134ZM126.304 4.98244H127.304V3.98244H126.304V4.98244ZM126.304 34.4762V35.4762H127.304V34.4762H126.304ZM36.3277 34.4762V33.4762H35.3277V34.4762H36.3277ZM36.3277 92.5124H35.3277V93.5124H36.3277V92.5124ZM118.557 92.5124H119.557V91.5124H118.557V92.5124ZM118.557 121.055V122.055H119.557V121.055H118.557ZM36.3277 121.055V120.055H35.3277V121.055H36.3277ZM36.3277 201.109V202.109H37.3277V201.109H36.3277ZM1.26134 201.109H2.26134V4.98244H1.26134H0.261345V201.109H1.26134ZM1.26134 4.98244V5.98244H126.304V4.98244V3.98244H1.26134V4.98244ZM126.304 4.98244H125.304V34.4762H126.304H127.304V4.98244H126.304ZM126.304 34.4762V33.4762H36.3277V34.4762V35.4762H126.304V34.4762ZM36.3277 34.4762H35.3277V92.5124H36.3277H37.3277V34.4762H36.3277ZM36.3277 92.5124V93.5124H118.557V92.5124V91.5124H36.3277V92.5124ZM118.557 92.5124H117.557V121.055H118.557H119.557V92.5124H118.557ZM118.557 121.055V120.055H36.3277V121.055V122.055H118.557V121.055ZM36.3277 121.055H35.3277V201.109H36.3277H37.3277V121.055H36.3277ZM36.3277 201.109V200.109H1.26134V201.109V202.109H36.3277V201.109ZM116.322 201.109L115.381 200.773L114.903 202.109H116.322V201.109ZM186.455 4.98244V3.98244H185.751L185.514 4.64574L186.455 4.98244ZM225.871 4.98244L226.812 4.64574L226.575 3.98244H225.871V4.98244ZM296.004 201.109V202.109H297.423L296.945 200.773L296.004 201.109ZM259.17 201.109L258.22 201.42L258.445 202.109H259.17V201.109ZM242.589 150.413L243.539 150.102L243.314 149.413H242.589V150.413ZM169.602 150.413V149.413H168.877L168.651 150.102L169.602 150.413ZM153.02 201.109V202.109H153.745L153.97 201.42L153.02 201.109ZM205.755 39.9129V38.9129H205.03L204.805 39.6018L205.755 39.9129ZM178.436 123.365L177.486 123.054L177.057 124.365H178.436V123.365ZM233.754 123.365V124.365H235.131L234.705 123.056L233.754 123.365ZM206.571 39.9129L207.522 39.6032L207.297 38.9129H206.571V39.9129ZM116.322 201.109L117.264 201.446L187.397 5.31915L186.455 4.98244L185.514 4.64574L115.381 200.773L116.322 201.109ZM186.455 4.98244V5.98244H225.871V4.98244V3.98244H186.455V4.98244ZM225.871 4.98244L224.929 5.31915L295.062 201.446L296.004 201.109L296.945 200.773L226.812 4.64574L225.871 4.98244ZM296.004 201.109V200.109H259.17V201.109V202.109H296.004V201.109ZM259.17 201.109L260.121 200.798L243.539 150.102L242.589 150.413L241.638 150.724L258.22 201.42L259.17 201.109ZM242.589 150.413V149.413H169.602V150.413V151.413H242.589V150.413ZM169.602 150.413L168.651 150.102L152.069 200.798L153.02 201.109L153.97 201.42L170.552 150.724L169.602 150.413ZM153.02 201.109V200.109H116.322V201.109V202.109H153.02V201.109ZM205.755 39.9129L204.805 39.6018L177.486 123.054L178.436 123.365L179.387 123.676L206.706 40.224L205.755 39.9129ZM178.436 123.365V124.365H233.754V123.365V122.365H178.436V123.365ZM233.754 123.365L234.705 123.056L207.522 39.6032L206.571 39.9129L205.62 40.2226L232.803 123.675L233.754 123.365ZM206.571 39.9129V38.9129H205.755V39.9129V40.9129H206.571V39.9129ZM446.539 185.071L445.907 184.296L445.179 184.89L445.726 185.653L446.539 185.071ZM472.227 220.953V221.953H474.173L473.04 220.371L472.227 220.953ZM437.432 220.953L436.619 221.535L436.919 221.953H437.432V220.953ZM421.666 198.935L422.479 198.353L422.043 197.743L421.335 197.991L421.666 198.935ZM402.502 172.159L402.745 173.129L404.169 172.773L403.316 171.578L402.502 172.159ZM378.037 137.908V136.908H376.094L377.223 138.49L378.037 137.908ZM412.832 137.908L413.644 137.325L413.345 136.908H412.832V137.908ZM426.695 157.208L425.883 157.792L426.607 158.8L427.438 157.878L426.695 157.208ZM386.872 204.507V203.507C358.43 203.507 335.438 193.843 319.548 176.529C303.65 159.205 294.769 134.12 294.769 103.114H293.769H292.769C292.769 134.494 301.761 160.105 318.075 177.881C334.398 195.668 357.956 205.507 386.872 205.507V204.507ZM293.769 103.114H294.769V102.842H293.769H292.769V103.114H293.769ZM293.769 102.842H294.769C294.769 71.9068 303.717 46.8549 319.649 29.547C335.574 12.2483 358.567 2.58454 386.872 2.58454V1.58454V0.584541C358.091 0.584541 334.534 10.4248 318.178 28.1924C301.83 45.9509 292.769 71.5277 292.769 102.842H293.769ZM386.872 1.58454V2.58454C415.244 2.58454 438.203 12.2485 454.076 29.5458C469.958 46.853 478.838 71.9049 478.838 102.842H479.838H480.838C480.838 71.5296 471.846 45.9528 455.549 28.1936C439.244 10.4246 415.72 0.584541 386.872 0.584541V1.58454ZM479.838 102.842H478.838V103.114H479.838H480.838V102.842H479.838ZM479.838 103.114H478.838C478.838 139.052 466.954 167.137 445.907 184.296L446.539 185.071L447.171 185.846C468.801 168.212 480.838 139.484 480.838 103.114H479.838ZM446.539 185.071L445.726 185.653L471.414 221.535L472.227 220.953L473.04 220.371L447.352 184.489L446.539 185.071ZM472.227 220.953V219.953H437.432V220.953V221.953H472.227V220.953ZM437.432 220.953L438.245 220.371L422.479 198.353L421.666 198.935L420.853 199.517L436.619 221.535L437.432 220.953ZM421.666 198.935L421.335 197.991C410.987 201.62 399.412 203.507 386.872 203.507V204.507V205.507C399.612 205.507 411.414 203.589 421.997 199.878L421.666 198.935ZM386.872 174.062V175.062C392.527 175.062 397.774 174.372 402.745 173.129L402.502 172.159L402.259 171.189C397.444 172.393 392.361 173.062 386.872 173.062V174.062ZM402.502 172.159L403.316 171.578L378.851 137.327L378.037 137.908L377.223 138.49L401.688 172.74L402.502 172.159ZM378.037 137.908V138.908H412.832V137.908V136.908H378.037V137.908ZM412.832 137.908L412.019 138.492L425.883 157.792L426.695 157.208L427.507 156.625L413.644 137.325L412.832 137.908ZM426.695 157.208L427.438 157.878C438.795 145.274 445.092 126.387 445.092 103.114H444.092H443.092C443.092 126.052 436.885 144.406 425.952 156.539L426.695 157.208ZM444.092 103.114H445.092V102.842H444.092H443.092V103.114H444.092ZM444.092 102.842H445.092C445.092 80.9363 439.514 62.9891 429.409 50.4971C419.286 37.9821 404.688 31.0297 386.872 31.0297V32.0297V33.0297C404.121 33.0297 418.134 39.737 427.854 51.7549C437.594 63.7957 443.092 81.2546 443.092 102.842H444.092ZM386.872 32.0297V31.0297C369.124 31.0297 354.526 37.9475 344.386 50.4449C334.264 62.9199 328.651 80.8676 328.651 102.842H329.651H330.651C330.651 81.1874 336.183 63.7289 345.939 51.7051C355.677 39.7036 369.689 33.0297 386.872 33.0297V32.0297ZM329.651 102.842H328.651V103.114H329.651H330.651V102.842H329.651ZM329.651 103.114H328.651C328.651 125.087 334.229 143.068 344.333 155.577C354.456 168.11 369.055 175.062 386.872 175.062V174.062V173.062C369.622 173.062 355.61 166.355 345.889 154.321C336.15 142.263 330.651 124.77 330.651 103.114H329.651Z" fill="url(#paint0_linear_11_311)" style="" mask="url(#path-1-outside-1_11_311)"></path></g><defs><linearGradient id="paint0_linear_11_311" x1="237.5" y1="-84.8906" x2="237.5" y2="290.109" gradientUnits="userSpaceOnUse"><stop stop-color="#FFBF5E" style="stop-color:#FFBF5E;stop-color:color(display-p3 1.0000 0.7508 0.3694);stop-opacity:1;"></stop><stop offset="1" stop-color="#FD9900" stop-opacity="0" style="stop-color:none;stop-opacity:0;"></stop></linearGradient></defs></svg>