<svg width="166" height="32" viewBox="0 0 166 32" fill="none" xmlns="http://www.w3.org/2000/svg">
<path d="M14.4131 10.2875C14.7403 10.2221 15.0774 10.1868 15.4196 10.1868H33.8337C36.6117 10.1868 38.8612 7.93731 38.8612 5.15935C38.8612 2.38138 36.6117 0.131836 33.8337 0.131836H16.1896V0.151963C15.9229 0.136865 15.6511 0.131836 15.3794 0.131836C15.0523 0.131836 14.7302 0.146937 14.4031 0.167067V10.2925H14.4081L14.4131 10.2875Z" fill="white"/>
<path d="M44.9909 10.2875C47.7953 10.2875 50.0687 8.01407 50.0687 5.20967C50.0687 2.40526 47.7953 0.131836 44.9909 0.131836C42.1865 0.131836 39.9131 2.40526 39.9131 5.20967C39.9131 8.01407 42.1865 10.2875 44.9909 10.2875Z" fill="white"/>
<path d="M61.4221 15.5117C61.4221 8.94926 57.0438 3.34804 50.879 1.14379V15.6878C50.879 18.2343 49.0069 20.4939 46.4705 20.7204C46.3145 20.7355 46.1584 20.7405 46.0024 20.7405H15.4197C12.5059 20.7405 10.1456 18.3802 10.1456 15.4664C10.1456 12.8998 11.9825 10.761 14.4132 10.2929H14.4082V0.16748C6.36616 0.670734 0 7.34891 0 15.5117C0 23.6745 6.88451 30.8911 15.3794 30.8911C15.9582 30.8911 16.5269 30.8559 17.0855 30.7955H44.3367C44.8953 30.8559 45.464 30.8911 46.0427 30.8911C54.1149 30.8911 60.7276 24.6759 61.3668 16.7698C61.3668 16.7396 61.3668 16.7094 61.3718 16.6792C61.402 16.2968 61.4221 15.9143 61.4221 15.5268C61.4221 15.5268 61.4221 15.5167 61.4221 15.5117Z" fill="white"/>
<path d="M154.544 25.752C151.152 25.752 147.76 25.7218 144.368 25.7721C143.402 25.7872 143.09 25.4701 143.095 24.5039C143.125 17.8006 143.13 11.0972 143.095 4.39387C143.09 3.31691 143.523 3.12064 144.484 3.12567C151.228 3.1458 157.971 3.12567 164.715 3.08038C165.671 3.07535 166.079 3.4075 165.978 4.36368C165.933 4.81157 165.938 5.25947 165.938 5.71239C165.943 8.03743 165.948 8.0475 163.547 8.03743C158.887 8.02233 154.227 7.99717 149.572 7.98207C148.012 7.98207 147.982 8.02233 148.007 9.54719C148.037 11.218 148.903 12.0517 150.604 12.0484C155.304 12.0383 160.005 12.0534 164.705 12.0031C165.666 11.993 166.064 12.2698 165.978 13.2511C165.913 13.9809 165.903 14.7257 165.978 15.4554C166.094 16.5173 165.732 16.9098 164.629 16.8947C159.682 16.8393 154.741 16.8544 149.794 16.8494C147.997 16.8494 148.022 16.8494 148.007 18.6863C147.992 20.8201 147.544 20.9157 150.277 20.9006C155.017 20.8754 159.758 20.9157 164.499 20.8452C165.711 20.8301 166.114 21.2378 165.973 22.4053C165.888 23.0897 165.908 23.7993 165.973 24.4838C166.059 25.445 165.706 25.7721 164.725 25.757C161.333 25.7067 157.941 25.7369 154.549 25.7369L154.544 25.752Z" fill="white"/>
<path d="M140.403 25.7473C138.485 25.7473 136.568 25.7825 134.656 25.7171C134.223 25.702 133.73 25.4252 133.398 25.1182C132.225 24.0413 131.123 22.8838 129.965 21.7867C129.648 21.4898 129.246 21.1023 128.863 21.0872C127.112 21.0067 125.35 21.0016 123.599 21.0771C123.348 21.0872 122.955 21.6408 122.92 21.9779C122.824 22.8687 122.834 23.7746 122.895 24.6703C122.945 25.4705 122.673 25.7976 121.858 25.7574C120.877 25.7121 119.895 25.7221 118.914 25.7523C118.229 25.7725 117.973 25.4756 117.973 24.8012C117.983 17.8915 117.983 10.9818 117.973 4.07216C117.973 3.28709 118.385 3.09082 119.05 3.09082C123.463 3.11095 127.882 3.06062 132.295 3.17134C136.191 3.27199 139.442 5.89394 140.433 9.50227C141.545 13.5484 140.171 17.3279 136.764 19.5875C136.432 19.8089 136.1 20.0303 135.642 20.3373C137.343 22.0987 138.969 23.7846 140.594 25.4655L140.408 25.7473H140.403ZM128.189 16.3566C129.694 16.3566 131.208 16.3767 132.708 16.2861C134.268 16.1905 135.416 15.1538 135.788 13.7346C136.583 10.6698 134.666 8.09316 131.51 8.04787C129.024 8.01264 126.538 8.06296 124.052 8.0227C123.232 8.00761 122.854 8.24414 122.869 9.1198C122.91 11.158 122.91 13.1962 122.874 15.2343C122.859 16.0848 123.197 16.3969 124.032 16.3717C125.416 16.3314 126.805 16.3616 128.189 16.3616V16.3566Z" fill="white"/>
<path d="M90.0019 18.0375C89.8812 21.6307 86.7006 25.0931 82.8507 25.5561C80.2791 25.8631 77.6118 25.8631 75.0452 25.546C70.9186 25.0327 68.0198 21.827 67.733 17.6902C67.5669 15.2998 67.5166 12.859 67.7833 10.4836C68.2614 6.13048 71.8647 3.03043 76.2329 2.95998C78.3164 2.92475 80.4049 2.88449 82.4783 3.02037C86.0967 3.26193 89.3779 6.36198 89.9516 10.1213C88.4016 10.1213 86.8767 10.1565 85.3569 10.0911C85.065 10.081 84.7379 9.73378 84.5215 9.46705C83.6106 8.3297 82.4481 7.80631 80.9987 7.82644C79.3632 7.8516 77.7276 7.80128 76.097 7.84657C73.9783 7.90193 72.685 9.03928 72.5692 11.1379C72.4585 13.1307 72.4636 15.1438 72.5843 17.1366C72.7101 19.2302 74.3055 20.7349 76.4644 20.8406C78.2963 20.9312 80.1432 20.8959 81.9801 20.8406C83.359 20.8003 84.3051 20.0505 85.0046 18.8527C85.2311 18.4652 85.835 18.118 86.298 18.0777C87.5058 17.972 88.7287 18.0425 90.012 18.0425L90.0019 18.0375Z" fill="white"/>
<path d="M92.8453 10.3976C92.8453 8.39467 92.8956 6.39172 92.8251 4.3938C92.7899 3.34703 93.1724 3.01488 94.1739 3.11553C94.9841 3.19605 95.8094 3.18096 96.6197 3.1256C97.5859 3.06018 97.8879 3.42252 97.8627 4.39883C97.7772 7.74547 97.7621 11.0971 97.752 14.4438C97.7419 17.8055 98.6931 19.3203 101.431 20.3721C104.199 21.439 107.606 20.7999 109.287 18.6309C109.956 17.7703 110.348 16.492 110.389 15.3849C110.525 11.7161 110.469 8.03233 110.429 4.35857C110.419 3.41245 110.665 2.99979 111.672 3.12057C112.397 3.20612 113.152 3.21619 113.871 3.12057C115.124 2.95953 115.346 3.52317 115.336 4.65046C115.295 8.32421 115.321 12.003 115.401 15.6768C115.492 19.9846 112.9 23.4319 108.21 25.0876C103.061 26.9094 96.7908 24.8863 94.0933 20.5634C93.2026 19.1341 92.7798 17.5942 92.7949 15.9133C92.81 14.0764 92.7949 12.2395 92.7949 10.3976C92.81 10.3976 92.8251 10.3976 92.8402 10.3976H92.8453Z" fill="white"/>
<path d="M133.634 30.0508H72.4836V30.6547H133.634V30.0508Z" fill="white"/>
<path d="M136.306 28.873H136.779V31.4145H136.306V28.873Z" fill="white"/>
<path d="M140.997 28.8728V31.4142H140.609L139.205 29.6931V31.4142H138.737V28.8728H139.125L140.529 30.5939V28.8728H140.997Z" fill="white"/>
<path d="M142.733 31.1473L142.894 30.78C143.095 30.941 143.422 31.0618 143.734 31.0618C144.132 31.0618 144.298 30.9209 144.298 30.7296C144.298 30.1811 142.788 30.5384 142.788 29.5973C142.788 29.1847 143.115 28.8374 143.815 28.8374C144.122 28.8374 144.439 28.9179 144.66 29.0639L144.509 29.4312C144.278 29.2954 144.031 29.2299 143.81 29.2299C143.417 29.2299 143.256 29.3809 143.256 29.5772C143.256 30.1207 144.766 29.7684 144.766 30.6994C144.766 31.1071 144.434 31.4543 143.739 31.4543C143.342 31.4543 142.949 31.3285 142.738 31.1473H142.733Z" fill="white"/>
<path d="M146.985 29.2755H146.145V28.8779H148.304V29.2755H147.463V31.4194H146.99V29.2755H146.985Z" fill="white"/>
<path d="M149.929 28.8728H150.403V31.4142H149.929V28.8728Z" fill="white"/>
<path d="M152.873 29.2755H152.033V28.8779H154.192V29.2755H153.352V31.4194H152.878V29.2755H152.873Z" fill="white"/>
<path d="M155.747 30.3122V28.8779H156.22V30.2921C156.22 30.8155 156.457 31.0419 156.869 31.0419C157.282 31.0419 157.513 30.8155 157.513 30.2921V28.8779H157.976V30.3122C157.976 31.052 157.559 31.4546 156.864 31.4546C156.17 31.4546 155.747 31.052 155.747 30.3122Z" fill="white"/>
<path d="M160.372 29.2755H159.531V28.8779H161.69V29.2755H160.85V31.4194H160.377V29.2755H160.372Z" fill="white"/>
<path d="M163.1 30.1459C163.1 29.396 163.683 28.8374 164.468 28.8374C165.253 28.8374 165.837 29.391 165.837 30.1459C165.837 30.9007 165.253 31.4543 164.468 31.4543C163.683 31.4543 163.1 30.9007 163.1 30.1459ZM165.359 30.1459C165.359 29.6275 164.977 29.2501 164.463 29.2501C163.95 29.2501 163.568 29.6225 163.568 30.1459C163.568 30.6692 163.95 31.0417 164.463 31.0417C164.977 31.0417 165.359 30.6692 165.359 30.1459Z" fill="white"/>
</svg>
